<svg width="34" height="33" viewBox="0 0 34 33" fill="none" xmlns="http://www.w3.org/2000/svg">
<path d="M32.2726 11.7928L22.3546 10.3514L17.921 1.36311C17.7999 1.11702 17.6007 0.9178 17.3546 0.796706C16.7374 0.492019 15.9874 0.745925 15.6788 1.36311L11.2453 10.3514L1.32728 11.7928C1.05385 11.8319 0.803845 11.9608 0.612439 12.1561C0.381039 12.3939 0.253528 12.7139 0.257922 13.0457C0.262317 13.3775 0.398259 13.694 0.635876 13.9256L7.81166 20.9217L6.11635 30.8006C6.07659 31.0304 6.10202 31.2668 6.18975 31.4828C6.27748 31.6989 6.42401 31.8861 6.61271 32.0232C6.80141 32.1602 7.02473 32.2417 7.25736 32.2582C7.48999 32.2748 7.72261 32.2259 7.92885 32.117L16.7999 27.453L25.671 32.117C25.9132 32.2459 26.1945 32.2889 26.464 32.242C27.1437 32.1248 27.6007 31.4803 27.4835 30.8006L25.7882 20.9217L32.964 13.9256C33.1593 13.7342 33.2882 13.4842 33.3273 13.2108C33.4328 12.5272 32.9562 11.8944 32.2726 11.7928Z" fill="#FDA202"/>
</svg>
